# xmcd
#
# Track frame offsets: 
#        182
#        12821
#        25298
#        38223
#        51600
#        65153
#        79096
#        92197
#        104761
#        118454
#        132505
#        146396
#        159754
#        173434
#        187085
#        197833
#        210701
#        222530
#
# Disc length: 3144 seconds
#
# Revision: 2
# Processed by: cddbd v1.5.2PL0 Copyright (c) Steve Scherf et al.
# Submitted via: ExactAudioCopy v0.99pb4
#
DISCID=150c4612
DTITLE=Various Artist - Chicago Blues 1940 - 1947 [Cd 1]
DYEAR=1998
DGENRE=Blues
TTITLE0=Lonnie johnson - Chicago Blues
TTITLE1=Robert Nighthawk - Friar's Point blues
TTITLE2=Charlie Segar - Key to the highway
TTITLE3=Tony Hollins - Crawling kingsnake
TTITLE4=Joe Mc Coy - Let's try it again
TTITLE5=Robert Jr Lockwood - Little Boy Blue
TTITLE6=Curtis Jones - Tin Pan Alley
TTITLE7=Yank Rachell - Peach Tree Blues
TTITLE8=Harmon Ray - Bessie Lee blues
TTITLE9=Robert Petway - Hollow Log blues
TTITLE10=Doctor Clayton - Pearl Harbor blues
TTITLE11=Big Maceo - Things have changed
TTITLE12=Saint Louis Jimmy - Dog house blues
TTITLE13=Johnny Shines - Delta Pine blues
TTITLE14=Muddy Waters - Mean Red spider
TTITLE15=Muddy Waters - Hard Day blues
TTITLE16=Homer Harris - Atomic bomb blues
TTITLE17=Johnny Young - My baby walked out on me in 1944
EXTD=\n\nYEAR: 1940  ID3G:   0
EXTT0=Lonnie Johnson
EXTT1=Robert Nighthawk
EXTT2=Charlie Segar
EXTT3=Tony Hollins
EXTT4=Joe Mc Coy
EXTT5=Robert Jr Lockwood
EXTT6=Curtis Jones
EXTT7=Yank Rachell
EXTT8=Harmon Ray
EXTT9=Robert Petway
EXTT10=Doctor Clayton
EXTT11=Big Maceo
EXTT12=Saint Louis Jimmy
EXTT13=Johnny Shines
EXTT14=Muddy Waters
EXTT15=Muddy Waters
EXTT16=Homer Harris
EXTT17=Johnny Young
PLAYORDER=
